<?xml version="1.0" standalone="no"?>
<!DOCTYPE svg PUBLIC "-//W3C//DTD SVG 20010904//EN"
 "http://www.w3.org/TR/2001/REC-SVG-20010904/DTD/svg10.dtd">
<svg version="1.0" xmlns="http://www.w3.org/2000/svg"
 width="512.000000pt" height="512.000000pt" viewBox="0 0 512.000000 512.000000"
 preserveAspectRatio="xMidYMid meet">

<g transform="translate(0.000000,512.000000) scale(0.100000,-0.100000)"
fill="#fff" stroke="none">
<path d="M1970 4845 c-241 -44 -457 -159 -636 -339 -180 -180 -278 -359 -337
-611 -21 -88 -21 -113 -24 -1235 -3 -812 -1 -1164 7 -1212 31 -184 179 -339
358 -377 34 -7 205 -11 477 -11 l425 0 0 -378 0 -379 23 -21 c23 -21 30 -22
294 -22 252 0 272 1 294 19 l24 19 3 381 3 381 427 0 c352 0 438 3 487 15 181
48 314 191 345 373 8 48 10 400 7 1212 -3 1122 -3 1147 -24 1235 -58 249 -160
435 -337 611 -183 183 -396 296 -640 339 -121 21 -1060 21 -1176 0z m1225
-168 c377 -102 656 -381 767 -765 l22 -77 3 -1184 c3 -1068 2 -1189 -13 -1233
-21 -65 -99 -149 -166 -179 -50 -22 -66 -24 -290 -27 l-238 -4 0 94 c0 196
-37 305 -140 412 -66 69 -125 106 -212 131 -49 14 -105 16 -395 13 l-338 -3
-78 -37 c-53 -26 -97 -56 -136 -96 -104 -104 -141 -207 -141 -395 l0 -119
-237 4 c-225 3 -241 5 -291 27 -67 30 -145 114 -166 179 -15 44 -16 165 -13
1233 l3 1184 22 77 c55 189 149 354 276 482 119 119 252 202 416 260 149 52
192 55 740 52 l505 -2 100 -27z m-475 -3402 l0 -445 -165 0 -165 0 0 438 c0
241 3 442 7 445 3 4 78 7 165 7 l158 0 0 -445z m-480 180 l0 -245 -120 0 -120
0 0 120 c0 141 18 202 81 273 33 38 123 95 152 97 4 0 7 -110 7 -245z m708
221 c57 -29 112 -85 143 -146 20 -39 24 -63 27 -177 l4 -133 -121 0 -121 0 0
240 c0 158 4 240 10 240 6 0 32 -11 58 -24z m-218 -1131 l0 -135 -165 0 -165
0 0 135 0 135 165 0 165 0 0 -135z"/>
<path d="M1550 3877 c-50 -16 -136 -103 -149 -152 -7 -27 -11 -248 -11 -680 0
-622 1 -641 21 -685 25 -55 62 -95 114 -123 l40 -22 968 -3 c622 -2 981 1
1005 8 67 17 125 62 157 121 l30 54 0 660 0 660 -22 41 c-28 53 -91 107 -142
122 -53 16 -1960 15 -2011 -1z m1995 -162 l25 -24 0 -636 0 -636 -25 -24 -24
-25 -965 0 -964 0 -26 31 -26 31 0 625 0 625 29 29 29 29 962 0 961 0 24 -25z"/>
<path d="M2742 3494 c-42 -21 -73 -52 -169 -167 -64 -78 -120 -146 -124 -151
-4 -5 -20 1 -35 13 -15 12 -51 28 -81 37 -150 44 -303 -76 -303 -237 0 -91 33
-141 174 -260 153 -128 181 -143 271 -144 112 0 132 16 371 303 113 136 215
265 227 287 29 55 29 154 -1 211 -62 120 -210 168 -330 108z m159 -157 c40
-27 49 -66 23 -105 -10 -15 -104 -131 -211 -258 -126 -151 -202 -234 -217
-238 -14 -3 -37 -1 -52 4 -32 13 -250 194 -258 216 -12 32 -5 63 20 93 40 48
78 43 155 -19 101 -81 94 -85 294 155 153 184 177 199 246 152z"/>
<path d="M3362 1983 c-7 -3 -19 -18 -28 -35 -13 -25 -13 -35 -3 -59 6 -17 20
-34 30 -39 10 -6 85 -10 167 -10 131 0 153 2 173 19 17 13 23 29 23 56 0 27
-6 43 -23 56 -21 17 -41 19 -175 18 -83 0 -157 -3 -164 -6z"/>
</g>
</svg>
